# xmcd
#
# Track frame offsets:
#	150
#	9623
#	29248
#	50992
#	76526
#
# Disc length: 1396 seconds
#
# Revision: 1
# Processed by: cddbd v1.5.2PL0 Copyright (c) Steve Scherf et al.
# Submitted via: audiograbber 1.83.01
#
DISCID=3a057205
DTITLE=Exploded - Gather all destructive strength
DYEAR=2013
DGENRE=Thrash Metal
TTITLE0=Intro
TTITLE1=Pay and die
TTITLE2=Master
TTITLE3=The wolf
TTITLE4=Born to thrash
EXTD=
EXTT0=
EXTT1=
EXTT2=
EXTT3=
EXTT4=
PLAYORDER=
